{"title":"The Colony 2013 DVDRip x264 AAC - ViZNU [P2PDL]","uid":8730410,"size":423823569,"categoryP":"video","categoryS":"movies","magnet":"?xt=urn:btih:8808e62c178cbd40e0b820c042198d6c115807aa&amp;dn=The+Colony+2013+DVDRip+x264+AAC+-+ViZNU+%5BP2PDL%5D&amp;tr=udp%3A%2F%2Ftracker.openbittorrent.com%3A80&amp;tr=udp%3A%2F%2Fopen.demonii.com%3A1337&amp;tr=udp%3A%2F%2Ftracker.coppersurfer.tk%3A6969&amp;tr=udp%3A%2F%2Fexodus.desync.com%3A6969","seeders":1,"leechers":0,"uploader":"Vitamin_X","files":-1,"time":1374593108,"description":"_______ Visit us at our Semi Public Bittorrent Community ________\n  &lt;a href=&quot;\nhttp://p2pdl.com&quot; rel=&quot;nofollow&quot; target=&quot;_NEW&quot;&gt;\nhttp://p2pdl.com&lt;/a&gt;  _____________________________ &lt;a href=&quot; http://p2pdl.com&quot; rel=&quot;nofollow&quot; target=&quot;_NEW&quot;&gt; http://p2pdl.com&lt;/a&gt;\n\n\nThe Colony 2013 DVDRip x264 AAC - ViZNU\n\nGenre:  Action | Sci-Fi | Thriller \nPlot: Forced underground by the next ice age, a struggling outpost of \nsurvivors must fight to preserve humanity against a threat even more savage than nature.\nDirector: Jeff Renfroe\nStars: Laurence Fishburne, Kevin Zegers, Bill Paxton.\nRated: N/A\n\n\nIMDb: &lt;a href=&quot;\nhttp://www.imdb.com/title/tt1160996/&quot; rel=&quot;nofollow&quot; target=&quot;_NEW&quot;&gt;\nhttp://www.imdb.com/title/tt1160996/&lt;/a&gt;\n\n\nGeneral\nFormat                         : MPEG-4\nFile size                      : 401 MiB\nDuration                       : 1h 34mn\nOverall bit rate mode          : Variable\nOverall bit rate               : 595 Kbps\n\nVideo\nFormat                         : AVC\nBit rate                       : 512 Kbps\nWidth                          : 640 pixels\nHeight                         : 352 pixels\nDisplay aspect ratio           : 16:9\nFrame rate mode                : Constant\nFrame rate                     : 29.970 fps\nStream size                    : 345 MiB (86%)\nWriting library                : x264 core 130 r2273 b3065e6\n\nAudio\nFormat                         : AAC\nBit rate mode                  : Variable\nBit rate                       : 80.0 Kbps\nChannel(s)                     : 2 channels\nChannel positions              : Front: L R\nSampling rate                  : 48.0 KHz / 24.0 KHz\nStream size                    : 53.9 MiB (13%)\n\nSubtitle                       : Yes(English)\n &lt;a href=&quot;\nhttp://someimage.com/MMmbLnl&quot; rel=&quot;nofollow&quot; target=&quot;_NEW&quot;&gt;\nhttp://someimage.com/MMmbLnl&lt;/a&gt; &lt;a href=&quot;\nhttp://someimage.com/XJ0obCz&quot; rel=&quot;nofollow&quot; target=&quot;_NEW&quot;&gt;\nhttp://someimage.com/XJ0obCz&lt;/a&gt; &lt;a href=&quot;\nhttp://someimage.com/UdW6XCf&quot; rel=&quot;nofollow&quot; target=&quot;_NEW&quot;&gt;\nhttp://someimage.com/UdW6XCf&lt;/a&gt; &lt;a href=&quot;\nhttp://someimage.com/di8fMPJ&quot; rel=&quot;nofollow&quot; target=&quot;_NEW&quot;&gt;\nhttp://someimage.com/di8fMPJ&lt;/a&gt; &lt;a href=&quot;\nhttp://someimage.com/HVkkxwl&quot; rel=&quot;nofollow&quot; target=&quot;_NEW&quot;&gt;\nhttp://someimage.com/HVkkxwl&lt;/a&gt; &lt;a href=&quot;\nhttp://someimage.com/8JwWjma&quot; rel=&quot;nofollow&quot; target=&quot;_NEW&quot;&gt;\nhttp://someimage.com/8JwWjma&lt;/a&gt;\n\n----------------------------------------------------------------------------------------------------\n\n\nEncoded using revolutionary 10bit encoding, which enables us to provide you more crispier \nand sharper images at small sizes, just make sure you follow our instructions without a fault.\nRecommend to you to use latest version of VLC player. Install K-Lite Codec Pack or shark007 codecs\nin case of any kind of problem in playback (For non-VLC Media Player users). Alternatively, install\nCore AVC codecs, the fastest decoder that there is coupled with Community Center Codec Pack and play\non Windows Media Player Classic. Check sample to be sure.\nEnjoy!\n\nEncoder Notes:Looking For Early Access To Anything You Can Provide DVDScr, R5, DVDR, BluRay, Direct\nAudio, Music Releases and Seedboxes. We require dedicated servers, so as to do more \nand fast releases of movies.\nIf You Got anything to offer please contact us at &quot;&lt;a class=&quot;__cf_email__&quot; href=&quot;/cdn-cgi/l/email-protection&quot; data-cfemail=&quot;3c4c4e5b7c54494f54125f5351&quot;&gt;[email&amp;#160;protected]&lt;/a&gt;&lt;script cf-hash='f9e31' type=&quot;text/javascript&quot;&gt;\n/* &lt;![CDATA[ */!function(){try{var t=&quot;currentScript&quot;in document?document.currentScript:function(){for(var t=document.getElementsByTagName(&quot;script&quot;),e=t.length;e--;)if(t[e].getAttribute(&quot;cf-hash&quot;))return t[e]}();if(t&amp;&amp;t.previousSibling){var e,r,n,i,c=t.previousSibling,a=c.getAttribute(&quot;data-cfemail&quot;);if(a){for(e=&quot;&quot;,r=parseInt(a.substr(0,2),16),n=2;a.length-n;n+=2)i=parseInt(a.substr(n,2),16)^r,e+=String.fromCharCode(i);e=document.createTextNode(e),c.parentNode.replaceChild(e,c)}}}catch(u){}}();/* ]]&gt; */&lt;/script&gt;&quot;.\n\nFacebook Fan Page:  \nSearch P2PDL on FB","torrent":{"xt":"urn:btih:8808e62c178cbd40e0b820c042198d6c115807aa","amp;dn":"The+Colony+2013+DVDRip+x264+AAC+-+ViZNU+%5BP2PDL%5D","amp;tr":["udp%3A%2F%2Ftracker.openbittorrent.com%3A80","udp%3A%2F%2Fopen.demonii.com%3A1337","udp%3A%2F%2Ftracker.coppersurfer.tk%3A6969","udp%3A%2F%2Fexodus.desync.com%3A6969"],"infoHash":"8808e62c178cbd40e0b820c042198d6c115807aa","infoHashBuffer":{"type":"Buffer","data":[136,8,230,44,23,140,189,64,224,184,32,192,66,25,141,108,17,88,7,170]},"announce":[],"urlList":[]}}